<svg width="423" height="379" viewBox="0 0 423 379" fill="none" xmlns="http://www.w3.org/2000/svg">
<g clip-path="url(#clip0)">
<path d="M417.9 295.6C415.9 292.2 412.1 286.7 408.4 281.6C411.2 285.6 414.1 289.9 417.9 295.6Z" fill="#FDBC7C"/>
<path d="M408.3 281.5C408.3 281.5 408.3 281.4 408.3 281.5C408.3 281.5 408.3 281.5 408.4 281.6C408.4 281.5 408.4 281.5 408.3 281.5Z" fill="#FDBC7C"/>
<path d="M6.59985 123.6C6.89985 122.1 7.29985 120.4 7.69985 118.6C7.39985 120.2 6.99985 121.9 6.59985 123.6Z" fill="#FDBC7C"/>
<path d="M146.8 186.6L146.2 187.5C143.2 190 141.6 191.5 140.6 192.4C139.6 193.3 139.2 193.7 138.8 194C138.4 194.3 138.1 194.6 137.2 195.5C136.3 196.3 134.9 197.8 132.6 200.6C131 202.9 127.2 207.6 124.1 212.6C120.9 217.5 118.3 222.8 117.3 225C117.3 225 117.1 225.3 116.9 225.9C116.6 226.5 116.3 227.3 115.9 228C115.2 229.5 114.6 231.1 114.6 230.8C114 232.9 112.1 237.6 110.9 241.8C110.5 243.3 111.3 240.7 111.7 239.6C111.7 239.6 111.5 240.2 111.2 241.1C110.9 242 110.6 243.2 110.3 244.4C109.6 246.8 109.1 249.3 109.1 249.3C108.6 251.2 108.3 252.4 108.2 252.6C108.1 252.8 108.2 252 108.7 249.9C108 253.1 107 257.9 106.3 263.9C105.6 269.9 105.1 277.1 105.5 285.1C105.6 289.1 106 293.3 106.5 297.6C107.1 301.9 107.8 306.4 108.8 310.9C110.9 319.9 113.9 329.1 118.3 337.8C122.6 346.5 128.2 354.7 135.1 361.5C141.9 368.3 150.1 373.3 158.4 375.9C162.7 377.2 166.7 377.9 170.4 378.1C171.3 378.2 172.2 378.3 173.1 378.3C173.5 378.3 174 378.4 174.4 378.4C174.8 378.4 175.3 378.4 175.7 378.4C177.4 378.4 179.1 378.4 180.7 378.4C181.1 378.4 181.5 378.4 181.9 378.4C182.3 378.4 182.7 378.3 183.1 378.3C183.9 378.2 184.6 378.2 185.3 378.1C186.7 377.9 188.1 377.8 189.4 377.7C191.9 377.2 194.1 376.8 195.9 376.4C195 376.5 193.7 376.8 192.3 377C191.6 377.1 190.9 377.3 190.1 377.4C189.7 377.5 189.3 377.5 188.9 377.6L187.7 377.7C184.6 378 181.5 378.3 179.8 378.1C181.7 378.1 183.4 377.9 184.8 377.7C186.3 377.6 187.5 377.4 188.7 377.3C191 376.9 192.7 376.6 194.3 376.2C194.7 376.2 195.2 376.1 195.9 376C196.6 375.8 197.3 375.6 198.2 375.4C199.1 375.2 200 374.9 201.1 374.6C201.6 374.4 202.1 374.3 202.7 374.1C203.2 373.9 203.8 373.7 204.3 373.5C205.4 373.1 206.5 372.7 207.5 372.2C208 372 208.6 371.8 209.1 371.6C209.6 371.4 210.1 371.1 210.6 370.9C212.6 369.9 214.4 369.2 215.7 368.5L217.5 367.1L220.8 365.2C222.5 364 224 362.8 225.4 361.9C226.1 361.4 226.7 361 227.3 360.5C227.9 360 228.4 359.6 228.8 359.1C229.8 358.3 230.6 357.5 231.3 356.9C231.7 356.6 232 356.3 232.3 356C232.6 355.7 232.8 355.4 233.1 355.2C235 353.3 235.6 352.7 236.1 352.2C236.6 351.7 237.1 351.3 238.6 349.6C239.3 348.8 240.4 347.6 241.8 346C242.6 345.2 243.3 344.2 244.2 343.1C245.1 342 246.1 340.7 247.2 339.2C249.6 335.7 251.7 332.7 253.3 329.8C254.1 328.4 254.9 327.1 255.6 325.8C256.3 324.5 256.9 323.3 257.5 322.1C258.1 320.9 258.7 319.8 259.2 318.7C259.7 317.6 260.2 316.5 260.7 315.5C261.7 313.4 262.7 311.4 263.6 309.2C263.1 310.5 261.5 313.8 263.1 309.8C263.3 309.5 264.4 306.8 265.6 304C266.7 301.1 267.7 298.1 268.2 297.1C269 295.1 270.3 290.8 271.3 287.6C272.2 284.4 272.8 282.2 272 284.3C272.4 283.2 273.5 279.7 274.1 277.4C274.7 275.1 275.1 273.9 274.3 277.4C275.3 273.4 276.4 269.5 276.9 266.6C276.9 266.6 276.6 267.9 276.3 269.2C276.2 269.8 276 270.5 275.9 271C275.8 271.5 275.7 271.8 275.7 271.8C276.5 268.4 277.1 265.4 277.7 262.7C278.3 260 278.7 257.5 279.2 255.1C279.7 252.8 280 250.6 280.3 248.4C280.6 246.2 280.9 244.1 281.1 241.8C281.1 241.8 280.9 243.1 280.7 244.3C280.5 245.6 280.3 246.8 280.3 246.8C281.5 238.6 282.1 231.7 282.7 228.5C282.7 228.5 282.5 230.6 282.4 232.7C282.2 234.8 282 236.9 282 236.9C282.4 233.5 282.7 230.4 282.9 227.5C283 226.1 283.1 224.7 283.2 223.3C283.3 221.9 283.3 220.6 283.4 219.3C283.7 214.1 283.8 209.1 283.8 203.4C283.8 203.4 283.8 204.4 283.8 205.4C283.8 206.4 283.7 207.4 283.7 207.4C283.7 206.5 283.7 205.3 283.7 204C283.7 202.6 283.7 201.1 283.6 199.3C283.6 197.5 283.6 195.6 283.5 193.5C283.4 191.4 283.3 189.2 283.2 186.8C282.7 177.5 281.9 166.1 279.8 154.9C277.7 143.7 274.4 132.8 271.1 124.1C270.3 121.9 269.5 119.8 268.7 118C267.9 116.1 267.1 114.4 266.4 112.8C265.7 111.2 265.1 109.8 264.5 108.7C263.9 107.5 263.4 106.6 263 105.8C263 105.8 263.6 107.2 264.3 108.6C264.6 109.3 264.9 110 265.2 110.6C265.4 111.1 265.6 111.5 265.6 111.5C265.6 111.5 265.5 111.3 265.4 111C265.3 110.7 265.1 110.3 264.8 109.8C264.3 108.8 263.6 107.5 263 106.2C262.3 104.9 261.7 103.6 261.2 102.6C261 102.1 260.7 101.7 260.6 101.4C260.4 101.1 260.4 101 260.4 101C260.6 101.3 260.9 101.7 261.2 102.2C261.5 102.7 261.9 103.3 262.3 103.9C263.1 105.1 263.8 106.2 264 106.7C263.3 105.3 262.5 103.5 261.4 101.5C260.3 99.5 259 97.1 257.5 94.5C256 91.9 254.2 89.1 252.4 86.1C251.4 84.6 250.4 83.1 249.3 81.5C248.8 80.7 248.2 79.9 247.7 79.1C247.1 78.3 246.5 77.5 245.9 76.7C244.7 75.1 243.5 73.5 242.2 71.8C240.9 70.2 239.5 68.5 238.1 66.8C236.8 65.1 235.2 63.5 233.7 61.8C233 61 232.2 60.1 231.4 59.3C230.6 58.5 229.8 57.7 229 56.8C227.4 55.2 225.8 53.4 224.1 51.8C222.4 50.2 220.7 48.6 218.9 46.9C217.1 45.3 215.3 43.8 213.5 42.2C211.7 40.6 209.8 39.2 207.9 37.7C200.3 31.8 192.4 26.4 184.4 21.9C176.5 17.3 168.5 13.6 161.2 10.7C146.5 4.7 134.2 2.4 128.5 1.4C119.2 0 126.9 0.8 127 0.8C121.4 -5.96046e-08 120 0.1 119 0C118.5 0 118 0 117.1 -0.1C116.6 -0.1 116 -0.2 115.3 -0.2C114.5 -0.2 113.6 -0.2 112.4 -0.3C109.8 -0.4 112.9 -0.5 114.4 -0.5C112.5 0.1 110.5 0 109 0C108.6 0 108.2 0 107.8 0C107.5 0 107.2 0 106.9 0C106.4 0 106.1 0 106 0.1C107.3 0.1 108.2 0.1 108.8 0.1H108.9H109C109.1 0.1 109.1 0.1 109.2 0.1C109.3 0.1 109.4 0.1 109.5 0.1C109.7 0.1 109.8 0.2 109.9 0.2C110.3 0.3 110.3 0.4 111.4 0.6C111.4 0.6 110.6 0.6 109.5 0.5C109.4 0.5 109.2 0.5 109.1 0.5C109 0.5 108.9 0.5 108.8 0.5H108.6C108.3 0.5 107.9 0.5 107.5 0.5C106.8 0.5 106 0.5 105.2 0.6C103.6 0.7 102.1 0.6 100.9 0.8C99.6999 1 98.8999 1 98.8999 1L99.3999 0.8C98.7999 0.9 97.9999 1 96.9999 1.1C96.4999 1.2 95.9999 1.2 95.3999 1.3C94.7999 1.4 94.0999 1.5 93.3999 1.7C92.6999 1.8 91.8999 2 90.9999 2.1C90.5999 2.2 90.0999 2.3 89.5999 2.3C89.0999 2.4 88.5999 2.5 88.0999 2.6C85.9999 3.1 83.3999 3.6 80.4999 4.4C77.9999 5 75.4999 6 72.9999 6.8C71.6999 7.2 70.4999 7.8 69.2999 8.3L67.4999 9.1C66.8999 9.4 66.2999 9.7 65.6999 10C60.7999 12.3 56.1999 15.3 51.8999 18.5C43.1999 25.1 35.8999 33.3 29.9999 41.8C29.9999 41.6 30.6999 40.6 31.5999 39.3C32.5999 37.9 33.7999 36.1 35.1999 34.4C34.7999 34.9 34.2999 35.6 33.6999 36.2C33.1999 36.9 32.6999 37.6 32.1999 38.3C31.1999 39.7 30.0999 41 29.3999 42.1C30.8999 40.1 29.6999 41.9 28.3999 43.8C27.0999 45.7 25.8999 47.8 26.8999 46.2C22.9999 53 18.9999 60.7 15.6999 68.4C12.3999 76.1 9.5999 83.8 7.7999 90.2C7.7999 90.8 7.2999 98.1 7.1999 105.1C7.0999 108.6 7.0999 112.1 7.1999 114.7C7.1999 117.3 7.3999 119 7.4999 119C6.5999 122.9 5.6999 126.9 5.3999 128.1C5.5999 127.6 6.0999 125.4 6.6999 122.8C7.2999 120.2 7.9999 117.3 8.3999 115.3L8.2999 114.5C9.3999 109.8 9.5999 109.3 9.7999 108.8C9.9999 108.3 10.0999 107.8 11.3999 103.3C11.6999 102.9 9.4999 111.2 7.7999 118.7C9.3999 112 11.1999 105.4 11.7999 102.7C13.5999 96.5 11.7999 103.4 14.0999 96C15.5999 90.7 17.6999 83.8 20.0999 78V78.1C22.9999 71 25.2999 65.7 27.8999 60.6C30.4999 55.6 33.0999 50.8 37.1999 45.2C37.1999 45.2 36.9999 45.5 36.7999 45.8C36.5999 46.1 36.3999 46.4 36.3999 46.4C37.7999 44.4 39.8999 41.5 42.4999 38.4C43.0999 37.6 43.7999 36.8 44.5999 36C45.2999 35.2 45.9999 34.4 46.7999 33.6C48.3999 32.1 49.8999 30.5 51.5999 29.1C50.6999 29.9 49.7999 30.6 49.5999 30.7C49.4999 30.8 49.5999 30.6 49.8999 30.3C50.2999 30 50.8999 29.4 51.7999 28.5C53.5999 26.8 55.4999 25.5 57.1999 24.2C58.0999 23.6 58.8999 23 59.7999 22.4C60.5999 21.8 61.3999 21.2 62.2999 20.8C65.5999 18.8 68.5999 17.1 71.9999 15.8C71.9999 15.8 73.5999 15.1 75.1999 14.3C76.7999 13.7 78.3999 13 78.3999 13C78.8999 12.8 79.3999 12.6 79.9999 12.4C80.5999 12.2 81.1999 12.1 81.7999 11.9C82.9999 11.6 84.2999 11.2 85.7999 10.8C87.1999 10.5 88.6999 10.2 90.2999 9.8C91.8999 9.5 93.5999 9.3 95.3999 9C98.9999 8.5 102.8 8.2 107 8.2C107.5 8.2 108 8.2 108.6 8.2H109C109 8.2 108.8 8.2 108.9 8.2H109H109.2H110C111.1 8.2 112.2 8.3 113.4 8.3C114 8.3 114.5 8.3 115.1 8.3C115.7 8.3 116.2 8.4 116.8 8.4C117.9 8.5 119 8.6 120.2 8.7C129.4 9.6 139.4 11.7 149.4 15C159.4 18.3 169.6 22.8 179.2 28.2C188.8 33.6 198 39.8 206.2 46.5C214.5 53.2 221.8 60.4 228.1 67.4C231.3 70.9 234.1 74.4 236.7 77.7C239.2 81.1 241.7 84.3 243.7 87.3C244.7 88.8 245.8 90.3 246.6 91.7C247.5 93.1 248.3 94.5 249.1 95.8C250.7 98.3 251.9 100.7 253 102.7L252.3 101.5C253.1 103 254 104.5 254.8 106.1C255.6 107.7 256.4 109.4 257.3 111.1C257.7 112 258.1 112.8 258.6 113.7C259 114.6 259.4 115.5 259.8 116.4C260.6 118.3 261.4 120.1 262.2 122.1C265.3 129.9 268.1 138.6 270.3 147.8C272.5 157.1 273.9 167 274.7 177.2C274.9 179.8 275 182.4 275.2 185.1C275.3 187.7 275.4 190.3 275.5 192.9C275.6 195.5 275.6 198.2 275.6 200.8C275.6 202.1 275.6 203.4 275.6 204.8L275.5 208.8C275.2 219.4 274.6 230 273.2 240.3C271.9 250.6 270.1 260.6 267.9 270.1C265.7 279.6 262.9 288.4 260 296.5C258.6 300.6 256.9 304.3 255.4 308C254.6 309.8 253.7 311.5 253 313.2C252.6 314 252.2 314.9 251.8 315.7C251.4 316.5 251 317.3 250.5 318.1C249.4 320 248.3 322.1 247 324.2C245.7 326.3 244.4 328.6 242.9 330.7C242.2 331.8 241.4 332.8 240.7 333.9C240 335 239.1 335.9 238.4 336.9C237.6 337.9 236.9 338.9 236.1 339.8C235.3 340.7 234.5 341.6 233.8 342.4C237.2 338.7 236.1 340.1 233.6 343C233 343.6 232.5 344.2 232 344.8C231.5 345.4 231 345.8 230.5 346.3C229.6 347.2 228.8 348 228.1 348.7C226.7 350.1 225.6 350.9 225 351.6C223.6 352.8 223.4 353 223.2 353.2C223.1 353.3 223 353.4 222.8 353.6C222.6 353.8 222.2 354.2 221.4 354.8C220.6 355.4 219.5 356.2 217.9 357.4C217.1 358 216.1 358.6 215 359.3C213.9 360 212.6 360.8 211.1 361.7C207.6 363.5 202.9 366 196.7 367.6C190.6 369.3 183.3 370.5 175.2 370.2C173.2 370 171.1 369.9 169 369.7L168.3 369.6L167.5 369.5C167 369.4 166.4 369.3 165.8 369.2C165.5 369.2 165.2 369.1 165 369.1L164.3 368.9C163.8 368.8 163.3 368.7 162.8 368.5C158.8 367.4 154.7 365.7 151 363.4C143.4 358.7 136.8 351.8 131.6 343.9C126.4 336 122.5 327.2 119.8 318.5C117 309.8 115.5 301.1 114.7 293.1C113.9 285.1 113.9 277.8 114.3 271.7C114.7 265.6 115.5 260.6 116.1 257.1C116.7 253.3 117.6 249.4 118.7 245.3C119.9 241.3 121.2 237.2 122.8 233.3C124.4 229.4 126.2 225.5 128.3 221.9C129.2 220.1 130.4 218.4 131.4 216.7C131.9 215.9 132.5 215.1 133 214.3C133.5 213.5 134 212.7 134.6 212C134.6 212 134.4 212.3 134.2 212.6C134 212.9 133.8 213.2 133.8 213.2C134.4 212.4 135.1 211.3 136 210.1C136.9 208.8 138.1 207.5 139.3 205.9C141.9 202.8 145.3 199.2 149.4 195.6C153.5 192 158.5 188.3 164 185.1C169.5 181.8 175.6 178.9 182 176.6C188.4 174.3 195 172.5 201.4 171.2C202.2 171 203 170.9 203.8 170.7L205 170.5L206.1 170.3C207.7 170.1 209.4 169.8 210.9 169.6C212.4 169.4 213.9 169.3 215.4 169.1C216.9 169 218.3 168.9 219.8 168.8C225.5 168.5 230.7 168.7 235 169C237.2 169.2 239.1 169.3 240.8 169.5C242.5 169.7 243.9 169.9 245.1 170.1C245.1 170.1 244.5 170 243.9 169.9C243.3 169.8 242.7 169.7 242.7 169.7C244.7 169.9 246.5 170.2 248 170.4C249.5 170.7 250.8 170.9 251.9 171.1C254.2 171.5 255.8 172 257.3 172.3C258.8 172.7 260.2 173.1 262 173.6C263.8 174.2 266 174.8 269 175.9C268.2 175.5 271.2 176.3 275 177.6C278.8 178.9 283.3 180.8 285.7 181.9H285.5C289.2 183.5 295.2 186.4 301.6 189.9C308 193.4 314.8 197.7 320.3 201.6L319.8 201.4C324.5 204.5 331 209.4 337 214.3C343 219.2 348.4 224.1 351.4 226.9C358.2 233.2 366.5 241.7 374.9 251.1C383.3 260.5 391.8 270.9 399.3 280.8C399.3 280.8 401.6 284.1 403.9 287.4C406.1 290.7 408.3 294.1 408.3 294.1L409.7 296C409.7 296 410.9 297.1 412.5 298.4C414.1 299.7 415.9 301.1 417.3 301.6C418.7 302.1 419.5 301.8 418.9 299.5C418.3 297.2 416.3 293 411.8 286L412.3 286.3L408.4 280.9C403.8 274.5 401.3 271.7 401.8 272C401.8 272 403.4 274.2 405.1 276.3C406.7 278.5 408.3 280.7 408.3 280.7C403.6 274.3 407 278.7 408.9 281.1C406.9 278.4 405 275.8 403.5 273.7C402.5 272.5 404.1 274.7 404.9 275.7C402.3 272.3 398.5 267.7 395.3 263.6C390.2 257.3 395.2 263 389.1 255.7C372.9 236.5 355.4 218.8 335.8 203.4C326 195.7 315.6 188.6 304.6 182.4C293.6 176.2 281.9 170.9 269.6 167.1C268.5 166.7 269.8 167.1 271.3 167.5C256.5 162.7 242.6 160.4 228.3 160.3C224.4 160.2 223.3 160.1 222.1 160.1C222.4 160.1 221.4 160.1 219.4 160.2C217.4 160.4 214.4 160.5 210.7 161C210.2 161.1 209.8 161.1 209.3 161.2C208.8 161.3 208.4 161.3 207.9 161.4C207 161.5 206 161.7 205 161.8C204.7 161.8 204.4 161.9 204.1 161.9C203.8 162 203.6 162 203.3 162.1C202.8 162.2 202.2 162.3 201.7 162.4C200.6 162.6 199.5 162.8 198.3 163.1C196 163.6 193.7 164.2 191.3 164.8C188.9 165.5 186.5 166.1 184.1 166.9L180.5 168.1C179.3 168.6 178.1 169 177 169.5C176.4 169.7 175.8 169.9 175.3 170.2C174.7 170.4 174.2 170.7 173.6 170.9C172.5 171.4 171.4 171.9 170.3 172.4C166 174.5 162 176.6 158.7 178.7C151.2 183 147 186.5 146.8 186.6Z" fill="#FDBC7C"/>
<path d="M416 273.8C415.8 273.9 415.8 274.2 415.7 274.5C415.9 274.3 416 274.1 416 273.8Z" fill="#FDBC7C"/>
<path d="M414.2 286.8L414.5 286.9C414.5 287.5 414.2 287.1 414.2 287.6C414.6 287.9 414.1 288.5 414.3 288.7C414.3 288.7 414.2 289 414.1 288.9C414.3 289 414.1 289.2 414.2 289.4C414.3 289.5 414.3 289.4 414.3 289.3V289.7C414.2 289.8 414.1 289.9 414.1 289.7C414 290.2 413.8 291.7 413.7 293.2L413.6 293.8C413.6 293.9 413.6 293.9 413.6 293.9C413.8 294 413.7 293.9 413.9 294.1C414 294.2 413.8 294.1 414 294.2C413.6 293.9 413.9 294.2 413.6 293.8L413.8 294L413.7 293.9C413.7 293.9 413.7 293.9 413.7 294C413.8 294.2 413.7 294.1 413.7 294C413.7 294 413.8 294.3 413.7 294.2C413.7 294.2 413.8 294.3 413.8 294.4C413.7 294.2 413.8 294.5 413.7 294.3C413.7 294.3 413.6 294.3 413.7 294.6C413.7 294.5 413.6 294.4 413.7 294.3C413.7 294.3 413.6 294.3 413.5 294.3L413.7 294.4C413.2 294.4 412.9 294.2 412.5 294.4L412.7 294.5C412.4 294.5 412.1 294.5 412 294.2L412.3 294.1C411.7 294.1 411.4 294.1 410.9 294.1H411.1C410.5 294.3 407.4 294.3 406.8 294.5L407 294.7L406.5 294.8C406.6 294.8 406.8 294.2 406.8 294.2C405.8 294.1 400.6 293.9 399.7 293.7C399.3 293.6 399.7 293.4 399.7 293.3C399.2 293.3 399.5 293.5 399.1 293.4C399 293.4 399.1 293.2 399.2 293.2C399 293.2 398.9 293.1 398.9 293.2C399.1 293.3 399 293.5 399.1 293.7L398.6 293.6V293.4C398.5 293.4 398.3 293.8 397.8 293.7C397 293.6 396.1 293.5 395.3 293.4C395.3 293.3 395.5 293.3 395.7 293.2C395.6 293.2 395.4 293.2 395.3 293.1C395.5 293.3 394.9 293.2 395.1 293.3C394.5 293.6 393.7 293.2 393.2 293.4C393.1 293.7 391.6 299.2 391.6 299.6C391.4 299.6 391.3 299.6 391.2 299.5C391.2 299.6 391.6 299.7 391.7 299.6V299.4C392.1 299.4 391.8 299.5 392.2 299.6C392.2 299.8 391.8 299.8 391.5 299.8C391.8 299.8 392.1 300 392.2 299.8C392.5 299.9 392.2 300 392.5 300.1C392.7 300.1 393 299.9 393.3 300C393.9 300.2 394.3 299.8 394.9 300L394.8 300.1C395 300.2 395.4 300.1 395.8 300.3C395.7 300.3 395.6 300.1 395.8 300.1C396.2 300.2 396.5 300.2 396.8 300.3L397.1 300.2C398.6 300.4 404.5 300.6 405.9 300.7H405.8C406.9 300.8 408.7 300.9 410.4 301C411.3 301 412.2 301.1 413 301.1C414.5 301.2 415.8 301.3 416.8 301.3C417.5 301.5 418.4 301.6 419.2 301.7C418.8 301.6 418.8 301.5 419.1 301.5C420.7 301.6 419.9 301.5 420.3 301.5C420.3 301.3 420.3 301.1 420.3 300.6C420.3 300 420.4 299 420.5 297.7C420.6 296.5 420.7 295.2 420.8 293.8C421 292.2 421.2 290.6 421.3 290C421.1 289.3 421.4 288.6 421.2 287.9L421.3 288C421.3 287.3 421.8 283.5 421.8 282.7V282.8C421.7 282.1 422 282.2 422.1 281.7C421.8 281.7 421.7 281.1 421.7 280.9H421.8C421.8 280.6 421.6 279.8 421.6 279.2H421.8C421.7 278.7 421.8 277.9 421.8 277.5C421.9 276.7 422.3 275.6 422.2 274.6L422.7 274V273.9C422.7 273.9 417.5 272.4 416.2 273.7H416V274C415.9 274.3 416.1 274.5 415.9 274.4L416 274C415.9 274.3 415.9 274.1 415.8 274C415.8 274.1 415.7 274.3 415.7 274.4C415.8 274.5 415.8 274.4 415.8 274.3C415.8 274.5 416 274.7 415.9 274.9C415.9 275.2 415.6 274.9 415.6 275.3C415.3 277.3 415 279.3 414.8 281.3C414.7 281.3 414.7 281.3 414.7 281.2C414.7 281.8 414.6 282.4 414.7 282.9C414.6 283 414.5 283.1 414.5 283.1C414.6 283.1 414.5 283.8 414.5 284.6C414.5 285 414.4 285.4 414.4 285.7C414.2 286.6 414.2 286.8 414.2 286.8Z" fill="#FDBC7C"/>
</g>
<defs>
<clipPath id="clip0">
<rect width="422.6" height="378.5" fill="white"/>
</clipPath>
</defs>
</svg>
