<svg width="140" height="324" viewBox="0 0 140 324" fill="none" xmlns="http://www.w3.org/2000/svg">
<g clip-path="url(#clip0)">
<path d="M15.1037 225.064C14.7164 225.257 14.7164 225.836 14.7164 226.221C14.9101 225.836 15.1037 225.45 15.1037 225.064Z" fill="#FDBC7C"/>
<path d="M13.7483 248.593H14.3292C14.3292 249.75 13.7483 248.978 13.942 249.943C14.7165 250.328 13.942 251.678 14.3292 252.064C14.3292 252.064 14.3292 252.643 13.942 252.45C14.3292 252.643 13.942 253.028 14.1356 253.221C14.3292 253.414 14.3292 253.221 14.3292 253.028L14.5229 253.8C14.3292 253.993 14.1356 254.186 14.1356 253.8C13.942 255.728 13.5547 264.6 13.7483 266.721C14.1356 266.528 13.942 265.757 14.3292 265.564C14.5229 266.143 14.3292 266.336 14.5229 266.528C13.7483 266.721 14.3292 267.686 13.5547 268.071L13.942 268.264L13.7483 268.457C14.1356 270.771 13.942 269.036 13.942 271.157C13.942 272.314 14.5229 272.893 14.3292 273.664C14.3292 273.471 14.5229 273.278 14.7165 273.664C14.3292 273.664 14.9102 274.436 14.5229 274.628C14.5229 275.014 14.5229 275.978 15.1038 275.593C14.9102 275.786 14.7165 276.557 14.5229 276.171C14.5229 276.557 14.5229 276.75 14.5229 276.943L14.7165 276.557C14.7165 277.521 14.3292 278.1 14.9102 278.678L15.1038 278.293C15.1038 278.871 15.1038 279.45 14.7165 279.643L14.5229 279.064C14.5229 280.028 14.5229 280.607 14.9102 281.571V281.186C15.2974 282.15 15.8783 287.743 16.4593 288.707L16.8465 288.321L17.2338 289.093C17.2338 288.9 16.072 288.707 16.072 288.514C16.072 290.25 16.4593 299.7 16.072 301.243C15.8783 301.821 15.4911 301.436 15.4911 301.436C15.6847 302.207 15.8783 301.821 15.8783 302.4C15.8783 302.593 15.4911 302.4 15.4911 302.207C15.4911 302.593 15.4911 302.786 15.4911 302.786C15.6847 302.4 16.072 302.593 16.4593 302.4V303.364H16.072C16.072 303.557 16.8465 303.943 16.6529 304.714C16.4593 306.257 16.6529 307.8 16.6529 309.343C16.4593 309.343 16.4593 308.957 16.2656 308.764C16.2656 308.957 16.2656 309.343 16.2656 309.536C16.6529 309.15 16.4593 310.114 16.6529 309.921C17.4274 311.078 16.6529 312.428 17.2338 313.393C17.8147 313.393 28.2711 315.514 29.0457 315.514C29.0457 315.9 29.0457 316.093 29.0457 316.286C29.2393 316.286 29.2393 315.707 29.2393 315.321H28.8521C28.6584 314.55 29.0457 315.128 29.0457 314.357C29.433 314.357 29.433 314.936 29.433 315.514C29.433 314.936 29.6266 314.55 29.433 314.357C29.6266 313.971 29.8202 314.357 30.0139 313.778C29.8202 313.393 29.6266 312.814 29.8202 312.428C30.2075 311.271 29.2393 310.693 29.6266 309.536L29.8202 309.728C30.0139 309.343 29.8202 308.571 30.0139 307.993C30.0139 308.186 29.6266 308.378 29.6266 307.993C29.8202 307.221 29.6266 306.643 29.8202 306.064L29.433 305.486C29.433 302.786 29.0457 292.178 29.0457 289.478V289.671C28.8521 285.621 28.8521 277.136 28.4648 272.893C28.8521 272.314 28.6584 271.35 28.8521 270.578C28.6584 270.964 28.4648 270.771 28.4648 270.578C28.4648 268.457 28.2711 270.386 28.0775 268.264C27.6902 265.757 28.0775 256.5 28.4648 254.378C28.0775 253.221 28.2711 251.678 28.0775 250.714L28.2711 250.907C28.0775 249.75 28.4648 242.807 28.2711 241.457V241.65C27.8839 240.493 28.4648 240.493 28.6584 239.528C28.0775 239.721 27.8839 238.564 27.6902 238.178H27.8839C27.8839 237.6 27.303 236.25 27.303 235.093H27.6902C27.303 234.321 27.4966 232.586 27.4966 232.007C27.6902 230.657 28.0775 228.536 27.6902 226.607L28.4648 225.45V225.257C28.4648 225.257 18.3956 223.328 16.2656 225.836H15.8783V226.221C15.6847 226.8 16.072 226.993 15.8783 226.993V226.221C15.8783 226.8 15.6847 226.414 15.4911 226.221C15.4911 226.414 15.4911 226.607 15.2974 226.8C15.4911 226.993 15.4911 226.8 15.4911 226.607C15.6847 226.993 15.8783 227.378 15.6847 227.764C15.6847 228.343 15.2974 227.764 15.1038 228.536C14.9102 232.2 14.5229 235.671 14.5229 239.528C14.3292 239.528 14.3292 239.528 14.3292 239.336C14.5229 240.493 14.3292 241.457 14.5229 242.421C14.3292 242.614 14.1356 242.807 14.1356 242.807C13.7483 242.807 13.7483 248.593 13.7483 248.593Z" fill="#FDBC7C"/>
<path d="M53.6376 234.9C53.4439 235.286 53.6376 235.479 53.6376 235.864C53.8312 235.479 53.8312 235.286 53.6376 234.9Z" fill="#FDBC7C"/>
<path d="M94.4952 277.329C94.4952 277.329 94.4952 277.136 94.3015 277.136C94.4952 277.136 94.4952 277.136 94.4952 277.329Z" fill="#FDBC7C"/>
<path d="M60.0276 248.4L60.4149 248.207C60.8022 248.786 60.0276 248.593 60.4149 249.172C61.1894 248.979 60.8022 250.136 61.3831 250.136C61.3831 250.136 61.3831 250.522 61.1894 250.522C61.5767 250.329 61.3831 250.714 61.5767 250.907C61.7704 250.907 61.5767 250.714 61.7704 250.714L62.1576 251.1C62.1576 251.293 61.964 251.486 61.7704 251.293C62.1576 252.45 64.8686 257.464 65.6431 258.429C65.8367 258.043 65.4495 257.85 65.8367 257.464C66.224 257.657 66.0304 257.85 66.4177 257.85C65.8367 258.236 66.6113 258.622 66.224 259.2L66.6113 259.007L66.4177 259.2C67.5795 260.164 66.8049 259.393 67.3858 260.55C67.7731 261.129 68.5477 261.129 68.5477 261.707C68.5477 261.707 68.7413 261.322 68.7413 261.514C68.5477 261.707 69.3222 261.9 68.9349 262.093C69.1286 262.286 69.3222 262.864 69.7095 262.286C69.5159 262.479 69.7095 263.057 69.3222 262.864C69.3222 263.057 69.5159 263.25 69.5159 263.25V263.057C69.9031 263.636 69.7095 264.022 70.2904 264.214V263.829C70.484 264.214 70.6777 264.407 70.2904 264.793L69.9031 264.6C70.2904 265.179 70.484 265.372 70.8713 265.757V265.564C71.6459 265.95 73.7759 268.65 74.5504 268.843L74.7441 268.457L75.325 268.843C75.325 268.843 74.1632 269.229 74.1632 269.036C74.7441 270 78.0359 274.822 78.2296 275.979C78.2296 276.364 77.8423 276.364 77.6486 276.364C78.0359 276.75 78.0359 276.364 78.2296 276.75C78.2296 276.943 78.0359 276.943 77.8423 276.75C78.0359 276.943 78.0359 277.136 78.0359 276.943C78.0359 276.75 78.4232 276.557 78.6168 276.364L78.8105 276.943L78.6168 277.136C78.6168 277.329 79.3914 276.943 79.585 277.522C79.9723 278.293 80.5532 279.257 80.9405 280.029C80.7468 280.029 80.5532 280.029 80.3596 279.836C80.3596 280.029 80.5532 280.029 80.5532 280.222C80.7468 279.836 80.9405 280.414 80.9405 280.222C81.9087 280.414 81.715 281.572 82.4896 281.764C83.0705 281.572 92.7524 277.329 93.3333 276.943C93.3333 277.136 93.5269 277.329 93.5269 277.329C93.7206 277.136 93.5269 276.75 93.3333 276.75L92.946 276.943C92.5587 276.557 93.1396 276.75 92.946 276.364C93.1396 276.172 93.5269 276.557 93.7206 276.75C93.5269 276.364 93.7206 275.979 93.3333 276.172C93.3333 275.786 93.7206 275.979 93.7206 275.593C93.5269 275.4 93.1396 275.207 93.1396 275.014C93.1396 274.243 92.1715 274.243 92.1715 273.664H92.3651C92.3651 273.279 91.9778 273.086 91.9778 272.7C91.9778 272.893 91.7842 273.086 91.5905 272.893C91.5905 272.314 91.2033 272.122 91.2033 271.736L90.816 271.543C90.0414 270 86.1687 264.6 85.3941 263.057C84.0387 260.936 81.3277 256.307 79.585 254.186C79.585 253.607 79.3914 253.222 79.1977 252.836C79.1977 253.029 79.0041 253.222 78.8105 253.029C78.2296 251.872 78.6168 253.029 77.8423 252.064C76.8741 250.907 74.1632 245.7 73.7759 244.35C73.0013 243.964 72.8077 243 72.2268 242.614H72.4204C71.8395 242.036 70.0968 238.179 69.5159 237.407V237.6C68.9349 237.022 69.3222 236.829 69.1286 236.25C68.7413 236.636 68.1604 236.25 67.9668 236.057H68.1604C67.9668 235.864 66.9986 235.286 66.6113 234.707L66.8049 234.514C66.224 234.129 65.8367 233.357 65.6431 232.972C65.2558 232.2 65.0622 230.85 64.094 229.886L64.4813 228.729H64.2876C64.2876 228.729 54.993 232.779 54.0248 235.093L53.8312 235.286L54.0248 235.479C54.0248 235.864 54.4121 235.864 54.2185 236.057L54.0248 235.672C54.2185 236.057 53.8312 235.864 53.6376 235.864C53.6376 236.057 53.8312 236.25 53.6376 236.25C53.8312 236.25 53.6376 236.057 53.8312 236.057C54.0248 236.25 54.4121 236.25 54.4121 236.636C54.6058 237.022 54.0248 236.829 54.2185 237.214C55.1867 239.336 55.9612 241.457 57.3167 243.386C57.3167 243.579 57.123 243.386 57.123 243.386C57.5103 243.964 57.8976 244.543 58.2849 244.929C58.2849 245.122 58.0912 245.314 58.0912 245.314C58.2849 245.314 60.0276 248.4 60.0276 248.4Z" fill="#FDBC7C"/>
<path d="M97.5934 219.086C97.3997 219.471 97.5934 219.471 97.5934 219.664C97.5934 219.279 97.5934 219.086 97.5934 219.086Z" fill="#FDBC7C"/>
<path d="M102.047 223.136L102.241 222.75C102.434 222.943 102.047 223.329 102.241 223.329C102.628 222.75 102.628 223.522 102.822 223.329C102.822 223.329 102.822 223.522 102.822 223.714C103.015 223.329 103.015 223.714 103.015 223.714V223.522H103.209C103.209 223.714 103.015 223.907 103.015 223.907C103.403 224.293 105.145 225.836 105.726 225.836C105.92 225.45 105.533 225.643 105.726 225.257C105.92 225.064 105.92 225.45 106.113 225.257C105.726 225.836 106.307 225.643 105.92 226.222L106.501 225.643V225.836C107.275 225.836 106.694 225.643 107.082 226.029C107.469 226.222 107.856 225.643 107.856 226.029C107.856 226.029 107.856 225.836 108.05 225.643C107.856 226.029 108.437 225.45 108.243 225.836C108.243 225.836 108.437 226.029 108.631 225.45C108.631 225.643 108.631 225.836 108.437 226.029C108.437 226.029 108.437 226.222 108.631 226.029V225.836C108.824 225.836 108.824 226.222 109.212 226.029V225.836C109.405 225.836 109.405 225.836 109.212 226.414H109.018C109.212 226.607 109.405 226.607 109.793 226.414C110.18 226.222 111.729 226.607 112.31 226.029V225.643L112.697 225.45C112.697 225.45 111.923 226.414 112.116 226.414C112.503 226.607 114.827 227.572 115.021 227.957C115.021 228.15 114.827 228.536 114.633 228.536C114.827 228.536 114.827 228.15 115.021 228.343L114.827 228.536C114.827 228.536 114.827 228.729 115.021 228.536C115.021 228.343 115.214 227.957 115.408 227.764L115.602 227.957L115.408 228.15C115.408 228.15 115.989 227.572 115.989 227.764C116.183 228.15 116.57 228.15 116.957 228.343C116.957 228.536 116.764 228.536 116.57 228.536C116.57 228.536 116.763 228.536 116.763 228.729C116.763 228.343 116.957 228.536 116.957 228.536C117.538 228.15 117.538 228.729 117.925 228.536C118.313 227.957 123.928 219.279 124.315 218.7L124.509 218.893C124.509 218.7 124.509 218.507 124.315 218.7L124.122 219.086C123.928 219.086 124.122 218.893 124.122 218.7C124.315 218.314 124.509 218.507 124.509 218.507C124.509 218.314 124.509 218.122 124.122 218.507C124.122 218.314 124.315 218.122 124.315 217.929C124.122 217.929 123.928 218.122 123.928 217.929C123.928 217.543 123.347 218.122 123.154 217.736C123.154 217.543 122.96 217.736 122.766 217.35C122.766 217.35 122.766 217.736 122.573 217.736C122.573 217.543 122.379 217.543 122.379 217.35L122.185 217.543C121.604 217.157 119.087 216.193 118.506 215.807C117.538 215.422 115.602 214.264 114.44 214.072C114.44 213.686 114.246 213.686 114.053 213.493C114.053 213.686 113.859 213.879 113.859 213.879C113.472 213.493 113.665 214.072 113.084 213.879C112.31 213.879 110.567 212.336 110.18 211.757C109.599 211.95 109.599 211.564 109.212 211.564C108.824 211.564 107.469 210.214 107.082 210.214C106.694 210.214 106.888 209.829 106.888 209.636C106.694 210.022 106.307 210.214 106.113 210.214V210.022C105.92 210.022 105.339 210.214 105.145 210.214L105.339 210.022C104.952 210.214 104.758 209.829 104.564 209.829C104.371 209.636 104.177 208.864 103.596 208.864L103.79 207.9C103.79 207.9 98.3679 216.193 97.787 218.507L97.5934 218.7H97.787C97.787 218.893 97.9807 218.7 97.9807 218.893L97.787 218.7C97.787 218.893 97.787 218.893 97.5934 219.086V219.279V219.086C97.787 219.086 97.9807 218.893 97.9807 219.086C98.1743 219.279 97.787 219.472 97.9807 219.664C98.7552 220.243 99.3361 221.014 100.111 221.4C100.111 221.593 100.111 221.593 99.917 221.593C100.304 221.593 100.498 221.786 100.692 221.786C100.692 221.979 100.692 222.172 100.498 222.172C100.885 222.364 102.047 223.136 102.047 223.136Z" fill="#FDBC7C"/>
<path d="M130.318 161.036C130.318 160.65 130.318 160.65 130.124 160.65C130.124 161.036 130.318 161.036 130.318 161.036Z" fill="#FDBC7C"/>
<path d="M127.414 159.686V160.264V159.686C127.22 160.457 127.026 159.686 127.026 160.071C127.026 160.071 127.026 160.071 127.026 159.686C127.026 160.071 127.026 159.686 126.833 159.879C126.833 160.071 126.833 160.071 126.833 160.071V160.264C126.833 160.071 126.833 159.879 126.833 159.879C126.639 159.686 125.477 159.3 125.284 159.493C125.284 159.879 125.477 159.686 125.477 160.071C125.477 160.264 125.477 160.071 125.284 160.264C125.284 159.493 125.09 160.071 125.09 159.3V159.686V159.493C124.896 159.879 125.09 159.686 124.703 159.686C124.509 159.686 124.509 160.264 124.509 160.071C124.509 160.071 124.509 160.264 124.509 160.457C124.509 160.071 124.315 160.65 124.315 160.264C124.315 160.264 124.122 160.264 124.122 160.843C124.122 160.65 123.928 160.457 124.122 160.264V160.457C123.928 160.457 123.928 160.071 123.928 160.65V160.843C123.928 160.843 123.734 160.843 123.734 160.457V160.264C123.541 160.264 123.541 160.264 123.541 160.65C123.347 161.036 122.766 161.614 122.573 162.193V162.579L122.379 162.964V161.807C122.185 161.807 121.024 162.193 120.83 161.807C120.83 161.614 120.83 161.229 120.83 161.229C120.83 161.421 120.83 161.614 120.636 161.614V161.229C120.636 161.421 120.636 161.807 120.636 162.193H120.443V161.807C120.443 161.807 120.443 162.579 120.249 162.386C120.055 162.193 119.862 162.386 119.668 162.386C119.668 162.193 119.668 162.193 119.668 162C119.668 162.386 119.668 162.193 119.668 162.386C119.474 163.157 119.281 162.386 119.281 162.964C119.281 163.543 119.087 173.957 119.087 174.729C119.087 174.922 119.087 174.922 119.281 174.922V174.536C119.281 174.343 119.281 174.729 119.474 174.729C119.474 175.114 119.474 175.114 119.281 175.114C119.281 175.114 119.474 175.307 119.474 175.114C119.474 175.307 119.474 175.5 119.474 175.693C119.474 175.5 119.668 175.307 119.668 175.5C119.862 175.886 119.862 174.922 120.055 175.307V175.5C120.055 175.693 120.249 175.5 120.249 175.693V175.307C120.249 175.5 120.443 175.307 120.443 175.5V175.114C120.83 175.114 121.992 174.729 122.379 174.729C122.96 174.536 123.928 174.536 124.315 174.15C124.315 174.536 124.509 174.343 124.509 174.536C124.509 174.343 124.509 174.15 124.509 174.15C124.703 174.15 124.509 173.957 124.703 173.764C124.896 173.379 126.058 173.764 126.252 174.15C126.445 173.764 126.639 173.957 126.639 173.764V173.957C126.833 173.764 127.607 174.15 127.801 173.957C127.995 173.571 127.994 174.15 127.994 174.343C127.994 173.764 128.188 173.572 128.188 173.379V173.572C128.188 173.572 128.382 172.993 128.575 172.993V173.379C128.769 172.993 128.769 173.186 128.963 173.186C129.156 173.379 129.35 173.764 129.544 173.379L129.737 174.15C129.737 174.15 129.931 164.121 129.737 162V161.614C129.737 161.421 129.544 161.807 129.737 161.614C129.737 161.614 129.737 161.421 129.737 161.229C129.737 161.229 129.737 161.229 129.737 161.036C129.737 161.229 129.737 161.229 129.737 161.229C129.737 161.421 129.737 161.614 129.544 161.421C129.544 161.421 129.544 161.036 129.544 160.843C129.156 160.65 128.769 160.264 128.188 160.264C128.188 160.071 128.188 160.071 128.188 160.071C127.994 160.264 127.995 160.071 127.801 160.264C127.801 160.071 127.801 159.879 127.801 159.879C128.188 159.879 127.607 159.879 127.414 159.686Z" fill="#FDBC7C"/>
<path d="M126.833 98.5499C126.639 98.3571 126.252 98.3571 126.058 98.5499C126.445 98.7428 126.639 98.7428 126.833 98.5499Z" fill="#FDBC7C"/>
<path d="M116.183 103.371L116.376 103.757C115.989 103.95 115.989 103.371 115.602 103.757C115.795 104.529 114.827 104.143 114.827 104.529C114.827 104.529 114.634 104.529 114.44 104.336C114.634 104.721 114.246 104.529 114.246 104.721C114.246 104.914 114.246 104.721 114.44 104.914L114.246 105.3C114.053 105.3 113.859 105.107 114.053 104.914C113.278 105.3 109.212 107.229 108.437 107.807C108.631 108 108.824 107.614 109.212 108C109.212 108.386 108.824 108.193 108.824 108.386C108.437 107.807 108.243 108.579 107.663 108L107.856 108.386L107.663 108.193C106.888 109.157 107.469 108.579 106.694 108.964C106.307 109.35 106.307 109.929 105.92 109.929C105.92 109.929 106.113 110.121 106.113 110.314C105.92 109.929 105.92 110.7 105.726 110.507C105.533 110.7 105.145 110.893 105.533 111.086C105.339 110.893 104.952 111.086 104.952 110.7C104.758 110.7 104.564 110.7 104.564 110.893H104.758C104.371 111.279 103.983 111.086 103.79 111.471H103.983C103.79 111.664 103.596 111.857 103.209 111.471L103.403 111.279C103.015 111.471 102.822 111.664 102.434 112.05H102.628C102.434 112.629 100.304 114.364 100.111 115.136L100.498 115.329L100.304 115.714C100.304 115.714 99.917 114.557 99.917 114.75C99.1425 115.136 95.2697 117.836 94.4952 118.029C94.1079 118.029 94.1079 117.643 94.1079 117.45C93.9143 117.836 94.1079 117.836 93.9143 118.029C93.7206 118.029 93.7207 117.836 93.7207 117.643C93.527 117.836 93.3334 117.643 93.527 117.836C93.7206 117.836 93.9143 118.221 94.1079 118.607L93.7207 118.8L93.527 118.607C93.527 118.607 93.7207 119.379 93.3334 119.571C92.5588 119.764 91.9779 120.343 91.397 120.536C91.397 120.343 91.397 120.15 91.397 119.957C91.397 119.957 91.2034 120.15 91.0097 119.957C91.397 120.15 90.8161 120.343 91.0097 120.343C90.8161 121.307 90.0415 120.921 89.8479 121.693C90.0415 122.271 94.4952 131.721 94.8825 132.3C94.6888 132.3 94.6888 132.493 94.4952 132.3C94.6888 132.493 94.8825 132.3 95.0761 132.107L94.8825 131.721C95.0761 131.336 95.0761 131.914 95.2698 131.721C95.4634 131.914 95.2697 132.3 95.0761 132.3C95.2697 132.3 95.657 132.3 95.4634 131.914C95.657 131.914 95.657 132.3 96.0443 132.3C96.2379 132.107 96.2379 131.721 96.6252 131.721C97.2061 131.721 97.2061 130.757 97.787 130.95V131.143C97.9807 131.143 98.1743 130.757 98.5616 130.757C98.7552 131.336 98.5616 131.143 98.7552 131.143C99.1425 131.143 99.3361 130.757 99.7234 130.95V130.564C100.885 129.986 105.145 126.9 106.307 126.129C108.05 124.971 111.535 122.85 113.084 121.5C113.472 121.693 113.859 121.307 114.246 121.307C114.053 121.307 114.053 121.114 114.053 120.921C115.021 120.343 114.053 120.729 114.827 119.957C115.795 119.186 119.862 117.064 120.83 116.871C121.024 116.1 121.798 116.1 122.185 115.521V115.714C122.573 115.329 125.864 113.979 126.252 113.4H126.058C126.445 112.821 126.639 113.4 127.026 113.207C126.639 112.821 127.026 112.243 127.22 112.05V112.243C127.414 112.05 127.801 111.279 128.188 110.893L128.382 111.086C128.575 110.7 129.35 110.314 129.544 110.121C130.125 109.929 131.286 109.736 131.867 108.964L132.835 109.35V109.157C132.835 109.157 128.575 100.093 126.445 98.7429L126.252 98.55L126.058 98.7429C125.671 98.7429 125.864 99.1286 125.671 98.9357L126.058 98.7429C125.864 98.7429 125.864 98.55 125.864 98.3572C125.671 98.3572 125.671 98.3572 125.477 98.3572C125.477 98.55 125.477 98.3572 125.671 98.55C125.671 98.7429 125.477 99.1286 125.284 99.1286C125.09 99.3215 125.09 98.7429 124.703 98.9357C122.96 99.7072 121.411 100.286 119.862 101.25V101.057C119.474 101.443 119.087 101.636 118.7 102.021C118.506 102.021 118.313 101.829 118.313 101.829C118.7 102.021 116.183 103.371 116.183 103.371Z" fill="#FDBC7C"/>
<path d="M88.1051 41.2712C87.7179 41.2712 87.5242 41.657 87.137 42.0427C87.7179 41.8498 87.9115 41.657 88.1051 41.2712Z" fill="#FDBC7C"/>
<path d="M60.2213 115.907C60.2213 115.907 60.4149 115.714 60.4149 115.521C60.2213 115.714 60.2213 115.907 60.2213 115.907Z" fill="#FDBC7C"/>
<path d="M76.6806 58.243L77.0678 58.6287C76.6806 59.4001 76.4869 58.6287 76.0996 59.4001C76.4869 59.9787 75.3251 60.5573 75.5187 61.1358C75.5187 61.1358 75.3251 61.5215 75.1315 61.3287C75.3251 61.7144 74.9378 61.7144 74.9378 62.1001C74.9378 62.293 75.1315 62.1001 75.1315 62.1001L74.9378 62.6787C74.7442 62.8715 74.5505 62.6787 74.5505 62.4858C73.5824 63.8358 69.3223 70.393 68.5478 71.9358C68.9351 71.9358 68.9351 71.3573 69.516 71.3573C69.516 71.9358 69.1287 71.9358 69.3223 72.1287C68.5478 71.9358 68.7414 72.9001 67.7732 72.9001L67.9669 73.2858H67.7732C67.1923 75.2144 67.7732 73.8644 66.805 75.2144C66.4178 76.1787 66.6114 76.7573 66.0305 77.3358C66.0305 77.3358 66.4178 77.143 66.4178 77.5287C66.0305 77.3358 66.2241 78.3001 65.8369 78.3001C65.8369 78.493 65.2559 79.2644 65.8369 79.2644C65.6432 79.2644 65.0623 79.843 65.0623 79.4573C64.8687 79.6501 64.675 79.843 64.675 80.0358L64.8687 79.843C64.4814 80.6144 63.9005 80.8073 64.0941 81.5787L64.4814 81.3858C64.2878 81.7715 64.0941 82.1572 63.5132 82.1572L63.7068 81.5787C63.3196 82.3501 63.1259 82.7358 62.9323 83.5073L63.1259 83.3144C63.1259 84.2787 60.9959 88.7144 60.9959 89.6787L61.5768 89.4858L61.3832 90.2573L60.6086 89.293C59.8341 90.643 55.9613 97.7787 54.9931 98.9358C54.6059 99.3215 54.4122 98.743 54.4122 98.743C54.2186 99.5144 54.6059 99.1287 54.2186 99.7073C54.2186 99.5144 54.2186 99.3215 54.2186 99.1287C54.2186 99.3215 53.8313 99.5144 54.025 99.7073C54.2186 99.5144 54.6059 99.9001 54.9931 99.9001L54.6059 100.479L54.2186 100.286C54.2186 100.479 54.6059 101.057 54.2186 101.636C53.444 102.6 52.8631 103.95 52.0886 104.914C51.8949 104.722 52.0886 104.529 52.0886 104.336C52.0886 104.529 51.8949 104.722 51.7013 104.722C52.0886 104.529 51.7013 105.3 51.8949 105.107C52.0886 106.264 50.9268 107.036 50.9268 108C51.5077 108.386 59.4468 115.136 60.2214 115.522C60.0277 115.714 60.0277 115.907 59.8341 115.907C60.0277 115.907 60.415 115.522 60.415 115.329L60.0277 115.136C60.2214 114.557 60.2214 115.136 60.6086 114.557C60.9959 114.75 60.6086 115.136 60.415 115.714C60.6086 115.329 61.1896 115.136 60.8023 114.75C61.1896 114.557 61.1896 114.943 61.5768 114.557C61.5768 114.172 61.5768 113.593 61.9641 113.4C62.7387 112.629 62.3514 111.857 63.1259 111.279V111.472C63.5132 111.279 63.5132 110.7 64.0941 110.314C63.9005 110.507 63.7068 110.507 63.9005 110.122C64.4814 109.736 64.4814 109.157 64.8687 108.772V108.193C66.0305 106.264 70.2905 98.1644 71.4523 96.043V96.2358C73.1951 93.1501 76.8742 86.7858 78.2297 83.5073C78.8106 83.1215 79.1978 82.543 79.5851 81.9644C79.3915 82.1573 79.1978 81.9644 79.3915 81.7715C80.3597 80.2287 79.1978 81.5787 79.9724 79.843C80.7469 77.9144 85.2006 71.1644 86.3624 69.6215C86.5561 68.4644 87.3306 67.693 87.7179 66.5358V66.7287C88.1052 65.7644 91.5907 60.7501 91.9779 59.593L91.5907 59.7858C91.7843 58.6287 92.1716 59.0144 92.7525 58.4358C92.1716 58.243 92.3652 57.2787 92.5588 57.0858C92.7525 56.5073 92.9461 55.3501 93.3334 54.5787L93.527 54.7715C93.527 54.0001 94.4952 52.843 94.6889 52.4573C95.4634 51.493 96.8189 50.143 97.2061 48.6001L98.368 48.2144V48.0215C98.368 48.0215 90.6225 41.4644 87.7179 42.2358L87.5243 42.043L87.3306 42.4287C86.9433 42.8144 87.137 43.2001 86.9434 43.0073L87.3306 42.4287C86.9433 42.8144 87.137 42.4287 86.9434 42.2358C87.137 42.2358 86.9434 42.4287 86.7497 42.4287C86.7497 42.6215 86.9434 42.4287 86.9434 42.4287C86.9434 42.6215 86.9434 43.2001 86.7497 43.393C86.5561 43.7787 86.3624 43.2001 85.9752 43.7787C84.2324 46.4787 82.2961 48.793 80.747 51.6858C80.5533 51.6858 80.747 51.6858 80.747 51.493C80.3597 52.4573 79.9724 53.0358 79.5851 54.0001C79.1978 54.0001 79.0042 54.0001 79.0042 54.0001C79.1978 54.0001 76.6806 58.243 76.6806 58.243Z" fill="#FDBC7C"/>
<path d="M15.1037 8.09985C14.7164 8.48557 14.7164 9.06414 14.7164 9.64271C14.9101 9.257 15.1037 8.67843 15.1037 8.09985Z" fill="#FDBC7C"/>
<path d="M13.7482 37.4142H14.3292C14.3292 38.7642 13.7482 37.7999 13.9419 39.1499C14.7164 39.7285 13.9419 41.2713 14.3292 41.657C14.3292 41.657 14.3291 42.2356 13.9419 42.2356C14.3291 42.4285 13.9419 42.8142 14.1355 43.1999C14.3292 43.3927 14.3292 43.007 14.3292 43.007L14.5228 43.9713C14.3291 44.357 14.1355 44.357 14.1355 43.9713C13.7482 46.2856 13.361 57.2785 13.5546 59.7856C13.9419 59.3999 13.7482 58.6285 14.1355 58.4356C14.3292 59.0142 14.1355 59.3999 14.3292 59.7856C13.5546 59.9785 14.1355 61.3285 13.361 61.7142L13.7482 61.907L13.5546 62.2927C13.9419 65.1856 13.7482 62.8713 13.7482 65.5713C13.7482 67.1142 14.3292 67.6927 14.1355 68.657C14.1355 68.4642 14.3291 68.2713 14.5228 68.657C14.1355 68.657 14.7164 69.6213 14.3292 69.8142C14.3292 70.1999 14.3291 71.357 14.9101 70.9713C14.7164 71.1642 14.5228 72.3213 14.3292 71.5499C14.3292 71.9356 14.3292 72.3213 14.3292 72.5142L14.5228 72.1285C14.5228 73.2856 14.1355 74.057 14.7164 74.8285L14.9101 74.4427C14.9101 75.2142 14.9101 75.7927 14.5228 76.1785L14.3292 75.407C14.3292 76.5642 14.3291 77.3356 14.7164 78.4928V78.107C15.1037 79.0713 15.491 85.8213 16.0719 87.1713L16.4592 86.5928L16.8464 87.557C16.8464 87.3642 15.6846 86.9785 15.6846 86.9785C15.6846 89.2927 16.0719 100.671 15.6846 102.793C15.491 103.564 15.1037 102.986 15.1037 102.986C15.2973 103.95 15.491 103.371 15.491 104.336C15.491 104.528 15.1037 104.336 15.1037 104.143C15.1037 104.528 15.1037 104.914 15.1037 104.914C15.2973 104.528 15.6846 104.721 16.0719 104.528V105.686H15.6846C15.6846 105.878 16.4592 106.264 16.2655 107.421C16.0719 109.157 16.2655 111.278 16.2655 113.014C16.0719 113.014 16.0719 112.628 15.8783 112.243C15.8783 112.436 15.8783 112.821 15.8783 113.014C16.2655 112.628 16.0719 113.786 16.2655 113.4C17.0401 114.75 16.2655 116.486 16.8464 117.643C17.4274 117.836 27.8838 120.15 28.6583 120.15C28.6583 120.536 28.6583 120.921 28.6583 120.921C28.852 120.921 28.852 120.15 28.852 119.764H28.4647C28.2711 118.8 28.6583 119.571 28.6583 118.607C29.0456 118.607 29.0456 119.378 29.0456 120.15C29.0456 119.571 29.2392 118.8 29.0456 118.607C29.2392 118.028 29.4329 118.607 29.6265 118.028C29.4329 117.45 29.2392 116.871 29.4329 116.293C29.8202 114.943 28.852 114.171 29.2392 112.821L29.4329 113.014C29.6265 112.628 29.4329 111.664 29.6265 110.893C29.6265 111.086 29.2392 111.278 29.2392 110.893C29.4329 109.928 29.2392 109.35 29.4329 108.578L29.0456 108C29.0456 104.721 28.6583 91.607 28.6583 88.3285V88.5213C28.4647 83.507 28.4647 73.0928 28.0774 67.6927C28.4647 66.9213 28.2711 65.7642 28.4647 64.9928C28.2711 65.3785 28.0774 65.3785 28.0774 64.9928C28.0774 62.4856 27.8838 64.7999 27.6901 62.2927C27.3029 59.207 27.6901 47.8285 28.0774 45.1285C27.6901 43.7785 27.8838 41.8499 27.6901 40.4999L27.8838 40.6927C27.6901 39.1499 28.0774 30.6642 27.8838 28.9285V29.1213C27.4965 27.5785 28.0774 27.7713 28.2711 26.6142C27.6901 26.807 27.4965 25.457 27.3029 24.8785H27.4965C27.4965 24.107 26.9156 22.3713 26.9156 21.2142H27.3029C26.9156 20.2499 27.1092 18.3213 27.1092 17.5499C27.3029 15.8142 27.6901 13.307 27.3029 10.9927L28.0774 9.44989V9.25703C28.0774 9.25703 18.0083 6.94275 15.8783 9.8356H15.491V10.4142C15.2973 11.1856 15.6846 11.3785 15.491 11.3785V10.4142C15.491 11.1856 15.2973 10.607 15.1037 10.4142C15.1037 10.7999 15.1037 10.9927 14.9101 11.1856C15.1037 11.3785 15.1037 10.9927 15.1037 10.9927C15.2973 11.3785 15.491 11.957 15.2973 12.3427C15.2973 13.1142 14.9101 12.3427 14.7164 13.307C14.5228 17.7427 14.1355 22.1785 14.1355 26.807C13.9419 26.9999 13.9419 26.807 13.9419 26.6142C14.1355 27.9642 13.9419 29.1213 14.1355 30.4713C13.9419 30.857 13.7482 30.857 13.7482 31.0499C13.7482 30.0856 13.7482 37.2213 13.7482 37.4142Z" fill="#FDBC7C"/>
</g>
<defs>
<clipPath id="clip0">
<rect width="140" height="324" fill="white"/>
</clipPath>
</defs>
</svg>
